<svg width="100" height="100" viewBox="0 0 100 100" fill="none" xmlns="http://www.w3.org/2000/svg">
<rect width="100" height="100" rx="8" fill="#EFF0F1"/>
<path d="M47.7349 57.7343C47.2995 57.7763 46.5193 57.7679 45.9025 57.6756C43.3988 57.3065 39.9879 56.0734 35.4431 52.7431C33.4746 51.3003 31.996 49.3876 31.996 47.0724C31.9688 45.6211 32.0958 43.7085 32.6673 41.5443C33.139 39.7575 33.8738 38.365 35.0803 37.1151C37.1848 39.2625 44.4873 43.5072 48.4516 45.7218C50.3203 46.8039 50.792 48.3391 50.7194 50.4194L50.0119 55.3184C49.7579 57.4407 48.506 57.6588 47.7349 57.7343Z" fill="#9AA3AE"/>
<path d="M47.7349 74.9757C47.2995 75.0177 46.5193 75.0093 45.9025 74.917C43.3988 74.5479 39.9879 73.3148 35.4431 69.9845C33.4746 68.5417 31.996 66.629 31.996 64.3138C31.9688 62.8625 32.0958 60.9499 32.6673 58.7857C33.139 56.9989 33.8738 55.6064 35.0803 54.3564C37.1848 56.5039 44.4873 60.7486 48.4516 62.9632C50.3203 64.0453 50.792 65.5805 50.7194 67.6608L50.0119 72.5598C49.7579 74.6821 48.506 74.9002 47.7349 74.9757Z" fill="#9AA3AE"/>
<mask id="mask0_1242_6779" style="mask-type:alpha" maskUnits="userSpaceOnUse" x="31" y="25" width="38" height="45">
<path d="M49.2229 28.1812C43.136 29.9764 36.9583 32.9711 34.3185 35.2528C32.4861 36.8299 31.0347 38.4992 31.0347 41.3766C31.0347 42.8278 31.1435 44.8243 31.5336 47.0221C31.9872 49.5387 33.4477 51.1242 34.4274 51.9295C34.4274 51.9295 31.452 46.5188 48.1797 42.1986C50.7288 41.5443 56.0446 40.4874 57.8226 40.2273C60.2447 39.8666 64.5536 39.4639 66.9666 39.2962C68.4362 39.1955 68.7265 38.4657 68.7628 37.761C68.8716 35.5716 69.0077 30.4881 68.9533 28.651C68.9079 27.1578 68.7628 26.3609 68.0733 25.7988C67.1208 25.0019 66.8033 24.8509 64.3178 25.1277C61.0158 25.4968 54.6204 26.5874 49.232 28.1812H49.2229Z" fill="#6AE5ED"/>
<path d="M49.2229 45.4225C43.136 47.2177 36.9583 50.2125 34.3185 52.4942C32.4861 54.0712 31.0347 55.7406 31.0347 58.6179C31.0347 60.0691 31.1435 62.0656 31.5336 64.2634C31.9872 66.78 33.4477 68.3655 34.4274 69.1708C34.4274 69.1708 31.452 63.7601 48.1797 59.44C50.7288 58.7857 56.0446 57.7287 57.8226 57.4686C60.2447 57.1079 64.5536 56.7053 66.9666 56.5375C68.4362 56.4368 68.7265 55.707 68.7628 55.0024C68.8716 52.8129 69.0077 47.7294 68.9533 45.8923C68.9079 44.3991 68.7628 43.6022 68.0733 43.0402C67.1208 42.2432 66.8033 42.0923 64.3178 42.3691C61.0158 42.7382 54.6204 43.8287 49.232 45.4225H49.2229Z" fill="#6AE5ED"/>
</mask>
<g mask="url(#mask0_1242_6779)">
<g clip-path="url(#clip0_1242_6779)">
<rect x="5.82483" y="15.8816" width="80" height="80" fill="#CDD2DA"/>
<path d="M123.864 91.5315C108.244 84.2477 114.122 71.6421 98.4902 64.3528C82.87 57.069 76.9919 69.6747 61.3601 62.3855C45.7399 55.1017 51.6181 42.496 35.9862 35.2068C20.3661 27.923 14.488 40.5286 -1.14387 33.2394L-43.7071 124.517L81.3007 182.809L123.864 91.5315Z" fill="#BBC0C9"/>
</g>
</g>
<defs>
<clipPath id="clip0_1242_6779">
<rect width="68.9655" height="68.9655" fill="white" transform="translate(5.82483 15.8816)"/>
</clipPath>
</defs>
</svg>
