<svg width="24" height="24" viewBox="0 0 24 24" fill="none" xmlns="http://www.w3.org/2000/svg">
<path fill-rule="evenodd" clip-rule="evenodd" d="M3.35288 8.46169C3.11809 9.46265 3.00046 10.4839 3 11.5053L3 11.5113L3 11.5173C3.00046 12.5386 3.11809 13.5599 3.35288 14.5608C4.00437 17.3383 6.17301 19.5069 8.95043 20.1584C9.95139 20.3932 10.9727 20.5108 11.994 20.5113L12 20.5113H16.5C17.8978 20.5113 18.5967 20.5113 19.1481 20.2829C19.8831 19.9784 20.4672 19.3944 20.7716 18.6593C21 18.108 21 17.4091 21 16.0113V11.5113L21 11.5053C20.9995 10.4839 20.8819 9.46265 20.6471 8.4617C19.9956 5.68427 17.827 3.51563 15.0496 2.86414C14.0467 2.62889 13.0233 2.51126 12 2.51126C10.9767 2.51126 9.95335 2.62889 8.95043 2.86414C6.17301 3.51563 4.00437 5.68427 3.35288 8.46169ZM8 10.5113C8 9.95898 8.44772 9.51126 9 9.51126H15C15.5523 9.51126 16 9.95898 16 10.5113C16 11.0635 15.5523 11.5113 15 11.5113H9C8.44772 11.5113 8 11.0635 8 10.5113ZM11 14.5113C11 13.959 11.4477 13.5113 12 13.5113H15C15.5523 13.5113 16 13.959 16 14.5113C16 15.0635 15.5523 15.5113 15 15.5113H12C11.4477 15.5113 11 15.0635 11 14.5113Z" fill="#52B6EC"/>
</svg>