<svg width="20" height="20" viewBox="0 0 20 20" fill="none" xmlns="http://www.w3.org/2000/svg">
<path d="M1.99336 7.17634C2.5966 4.60466 4.6046 2.59666 7.17629 1.99342C9.03353 1.55777 10.9664 1.55777 12.8236 1.99342C15.3953 2.59666 17.4033 4.60466 18.0066 7.17635C18.4422 9.03359 18.4422 10.9665 18.0066 12.8237C17.4033 15.3954 15.3953 17.4034 12.8236 18.0066C10.9664 18.4423 9.03353 18.4423 7.17629 18.0066C4.6046 17.4034 2.5966 15.3954 1.99336 12.8237C1.55771 10.9665 1.55771 9.03359 1.99336 7.17634Z" fill="#798493"/>
<path fill-rule="evenodd" clip-rule="evenodd" d="M14.4193 6.64141C14.7122 6.34852 14.7122 5.87365 14.4193 5.58075C14.1264 5.28786 13.6515 5.28786 13.3587 5.58075L10.0001 8.93931L6.64154 5.58076C6.34864 5.28786 5.87377 5.28786 5.58088 5.58076C5.28798 5.87365 5.28798 6.34852 5.58088 6.64142L8.93943 9.99997L5.58088 13.3585C5.28798 13.6514 5.28798 14.1263 5.58088 14.4192C5.87377 14.7121 6.34864 14.7121 6.64154 14.4192L10.0001 11.0606L13.3587 14.4192C13.6515 14.7121 14.1264 14.7121 14.4193 14.4192C14.7122 14.1263 14.7122 13.6514 14.4193 13.3585L11.0608 9.99997L14.4193 6.64141Z" fill="white"/>
</svg>
