<svg width="24" height="24" viewBox="0 0 24 24" fill="none" xmlns="http://www.w3.org/2000/svg">
<path d="M11.0939 15.0937C10.9198 15.1105 10.6077 15.1072 10.361 15.0702C9.35948 14.9226 7.99514 14.4293 6.17723 13.0972C5.38982 12.5201 4.79837 11.755 4.79837 10.8289C4.78748 10.2484 4.83828 9.4834 5.06688 8.61769C5.25557 7.90298 5.54948 7.34597 6.03208 6.84601C6.87391 7.70501 9.79491 9.40287 11.3806 10.2887C12.1281 10.7216 12.3168 11.3356 12.2877 12.1678L12.0047 14.1274C11.9031 14.9763 11.4024 15.0635 11.0939 15.0937Z" fill="#52B6EC"/>
<path d="M11.0939 21.9903C10.9198 22.0071 10.6077 22.0037 10.361 21.9668C9.35948 21.8192 7.99514 21.3259 6.17723 19.9938C5.38982 19.4167 4.79837 18.6516 4.79837 17.7255C4.78748 17.145 4.83828 16.38 5.06688 15.5143C5.25557 14.7996 5.54948 14.2425 6.03208 13.7426C6.87391 14.6016 9.79491 16.2994 11.3806 17.1853C12.1281 17.6181 12.3168 18.2322 12.2877 19.0643L12.0047 21.0239C11.9031 21.8729 11.4024 21.9601 11.0939 21.9903Z" fill="#52B6EC"/>
<mask id="mask0_105_2292" style="mask-type:alpha" maskUnits="userSpaceOnUse" x="4" y="2" width="16" height="18">
<path d="M11.6891 3.27248C9.25434 3.99055 6.78328 5.18845 5.72736 6.10114C4.99439 6.73196 4.41382 7.3997 4.41382 8.55062C4.41382 9.13112 4.45736 9.92972 4.61339 10.8088C4.79482 11.8155 5.37902 12.4497 5.77091 12.7718C5.77091 12.7718 4.58073 10.6075 11.2718 8.87946C12.2915 8.61773 14.4178 8.19494 15.129 8.09092C16.0978 7.94664 17.8214 7.78558 18.7866 7.71847C19.3744 7.6782 19.4905 7.38628 19.5051 7.10442C19.5486 6.22864 19.603 4.19524 19.5813 3.46039C19.5631 2.86312 19.5051 2.54435 19.2293 2.31953C18.8483 2.00077 18.7213 1.94037 17.7271 2.0511C16.4063 2.19874 13.8481 2.63495 11.6927 3.27248H11.6891Z" fill="#6AE5ED"/>
<path d="M11.6891 10.169C9.25434 10.8871 6.78328 12.085 5.72736 12.9977C4.99439 13.6285 4.41382 14.2962 4.41382 15.4472C4.41382 16.0277 4.45736 16.8263 4.61339 17.7054C4.79482 18.712 5.37902 19.3462 5.77091 19.6683C5.77091 19.6683 4.58073 17.5041 11.2718 15.776C12.2915 15.5143 14.4178 15.0915 15.129 14.9875C16.0978 14.8432 17.8214 14.6821 18.7866 14.615C19.3744 14.5747 19.4905 14.2828 19.5051 14.001C19.5486 13.1252 19.603 11.0918 19.5813 10.3569C19.5631 9.75966 19.5051 9.4409 19.2293 9.21608C18.8483 8.89731 18.7213 8.83691 17.7271 8.94764C16.4063 9.09528 13.8481 9.53149 11.6927 10.169H11.6891Z" fill="#6AE5ED"/>
</mask>
<g mask="url(#mask0_105_2292)">
<g clip-path="url(#clip0_105_2292)">
<rect x="-5.67017" y="-1.64737" width="80" height="80" fill="#6AE5ED"/>
<path d="M41.5456 28.6126C35.2975 25.6991 37.6488 20.6568 31.396 17.7411C25.148 14.8276 22.7967 19.8699 16.544 16.9542C10.296 14.0407 12.6472 8.99842 6.39446 6.08272C0.146416 3.16921 -2.20483 8.21148 -8.45757 5.29578L-25.4829 41.8067L24.5203 65.1235L41.5456 28.6126Z" fill="#5DCBEE"/>
</g>
</g>
<defs>
<clipPath id="clip0_105_2292">
<rect width="27.5862" height="27.5862" fill="white" transform="translate(-5.67017 -1.64737)"/>
</clipPath>
</defs>
</svg>