<svg width="48" height="48" viewBox="0 0 48 48" fill="none" xmlns="http://www.w3.org/2000/svg">
<path d="M0.941007 15.8678C2.67833 8.46135 8.46136 2.67832 15.8678 0.941005C21.2167 -0.313668 26.7833 -0.313669 32.1322 0.941004C39.5386 2.67833 45.3217 8.46136 47.059 15.8678C48.3137 21.2167 48.3137 26.7833 47.059 32.1322C45.3217 39.5387 39.5387 45.3217 32.1322 47.059C26.7833 48.3137 21.2167 48.3137 15.8678 47.059C8.46136 45.3217 2.67833 39.5387 0.941007 32.1322C-0.313669 26.7833 -0.313669 21.2167 0.941007 15.8678Z" fill="white"/>
<path d="M1.91458 16.0962C3.56517 9.05948 9.05949 3.56517 16.0962 1.91458C21.2948 0.695141 26.7052 0.69514 31.9038 1.91458C38.9405 3.56517 44.4348 9.05949 46.0854 16.0962C47.3049 21.2948 47.3049 26.7052 46.0854 31.9038C44.4348 38.9405 38.9405 44.4348 31.9038 46.0854C26.7052 47.3049 21.2948 47.3049 16.0962 46.0854C9.05949 44.4348 3.56517 38.9405 1.91458 31.9038C0.69514 26.7052 0.69514 21.2948 1.91458 16.0962Z" stroke="#52B6EC" stroke-opacity="0.72" stroke-width="2"/>
<path fill-rule="evenodd" clip-rule="evenodd" d="M24.9997 15.9979C24.9997 15.4456 24.552 14.9979 23.9997 14.9979C23.4475 14.9979 22.9997 15.4456 22.9997 15.9979L22.9997 23H15.9977C15.4454 23 14.9977 23.4477 14.9977 24C14.9977 24.5522 15.4454 25 15.9977 25H22.9997L22.9997 32.0021C22.9997 32.5544 23.4475 33.0021 23.9997 33.0021C24.552 33.0021 24.9997 32.5544 24.9997 32.0021L24.9997 25H32.0019C32.5542 25 33.0019 24.5522 33.0019 24C33.0019 23.4477 32.5542 23 32.0019 23H24.9997L24.9997 15.9979Z" fill="#52B6EC"/>
</svg>
