<svg width="24" height="24" viewBox="0 0 24 24" fill="none" xmlns="http://www.w3.org/2000/svg">
<path d="M8.30439 8.69586C8.30439 7.52577 6.74812 7.21563 6.33523 8.31045C5.33648 10.9588 4.60876 13.3279 4.60876 14.6088C4.60876 18.6908 7.91794 22 12 22C16.0821 22 19.3913 18.6908 19.3913 14.6088C19.3913 13.2326 18.5513 10.6004 17.4377 7.71533C15.9951 3.97802 15.2738 2.10937 14.3834 2.00872C14.0985 1.97652 13.7877 2.03442 13.5335 2.16706C12.7391 2.58158 12.7391 4.61967 12.7391 8.69586C12.7391 9.92048 11.7464 10.9132 10.5218 10.9132C9.29714 10.9132 8.30439 9.92048 8.30439 8.69586Z" fill="#BBC0C9"/>
</svg>
