<svg width="24" height="24" viewBox="0 0 24 24" fill="none" xmlns="http://www.w3.org/2000/svg">
<path d="M8.15683 5.64464C8.44639 4.41023 9.41023 3.44639 10.6446 3.15683C11.5361 2.94772 12.4639 2.94772 13.3554 3.15683C14.5898 3.44639 15.5536 4.41023 15.8432 5.64464C16.0523 6.53611 16.0523 7.46389 15.8432 8.35536C15.5536 9.58978 14.5898 10.5536 13.3554 10.8432C12.4639 11.0523 11.5361 11.0523 10.6446 10.8432C9.41023 10.5536 8.44639 9.58978 8.15683 8.35537C7.94772 7.46389 7.94772 6.53611 8.15683 5.64464Z" fill="#52B6EC"/>
<path d="M4.33485 16.019C5.19843 14.1767 7.04954 13 9.08421 13H14.9158C16.9505 13 18.8016 14.1767 19.6652 16.019C20.7521 18.3378 19.0599 21 16.4989 21H7.50109C4.94014 21 3.2479 18.3378 4.33485 16.019Z" fill="#52B6EC"/>
</svg>
